<?xml version="1.0" encoding="UTF-8" standalone="no"?><!DOCTYPE svg PUBLIC "-//W3C//DTD SVG 1.1//EN" "http://www.w3.org/Graphics/SVG/1.1/DTD/svg11.dtd"><svg width="100%" height="100%" viewBox="0 0 752 495" version="1.1" xmlns="http://www.w3.org/2000/svg" xmlns:xlink="http://www.w3.org/1999/xlink" xml:space="preserve" xmlns:serif="http://www.serif.com/" style="fill-rule:evenodd;clip-rule:evenodd;stroke-linejoin:round;stroke-miterlimit:2;"><g id="Bold-L"><path d="M64.087,238.241l239.054,0c43.335,0 64.086,-20.752 64.086,-64.901l0,-108.642c0,-44.149 -20.751,-64.698 -64.086,-64.698l-239.054,0c-43.132,0 -64.087,20.549 -64.087,64.698l0,108.642c0,44.149 20.955,64.901 64.087,64.901Zm450.032,223.388l172.933,0c43.538,0 64.292,-20.548 64.292,-64.697l0,-294.8c0,-44.149 -20.754,-64.9 -64.292,-64.9l-172.933,0c-43.538,0 -64.292,20.751 -64.292,64.9l0,294.8c0,44.149 20.754,64.697 64.292,64.697Zm-392.252,33.366l211.588,0c43.335,0 64.089,-20.548 64.089,-64.697l0,-75.48c0,-44.149 -20.754,-64.901 -64.089,-64.901l-211.588,0c-43.335,0 -64.087,20.752 -64.087,64.901l0,75.48c0,44.149 20.752,64.697 64.087,64.697Z" style="fill:#fff;fill-rule:nonzero;"/></g></svg>