<svg clip-rule="evenodd" fill-rule="evenodd" stroke-linejoin="round" stroke-miterlimit="2" viewBox="0 0 589 390" xmlns="http://www.w3.org/2000/svg"><path d="m54.728 189.412h180.257c37.028 0 54.525-17.496 54.525-55.135v-79.345c0-37.435-17.497-54.932-54.525-54.932h-180.257c-37.231 0-54.728 17.497-54.728 54.932v79.345c0 37.639 17.497 55.135 54.728 55.135zm348.513 175.375h130.004c37.229 0 54.929-17.497 54.929-55.135v-226.441c0-37.435-17.7-55.135-54.929-55.135h-130.004c-37.233 0-54.73 17.7-54.73 55.135v226.441c0 37.638 17.497 55.135 54.73 55.135zm-305.788 24.617h160.115c37.232 0 54.728-17.293 54.728-54.931v-53.711c0-37.639-17.496-55.135-54.728-55.135h-160.115c-37.232 0-54.728 17.496-54.728 55.135v53.711c0 37.638 17.496 54.931 54.728 54.931z" fill="#fff" fill-rule="nonzero"/></svg>