<?xml version="1.0" encoding="UTF-8" standalone="no"?><!DOCTYPE svg PUBLIC "-//W3C//DTD SVG 1.1//EN" "http://www.w3.org/Graphics/SVG/1.1/DTD/svg11.dtd"><svg width="100%" height="100%" viewBox="0 0 465 310" version="1.1" xmlns="http://www.w3.org/2000/svg" xmlns:xlink="http://www.w3.org/1999/xlink" xml:space="preserve" xmlns:serif="http://www.serif.com/" style="fill-rule:evenodd;clip-rule:evenodd;stroke-linejoin:round;stroke-miterlimit:2;"><g id="Bold-S"><path d="M46.387,151.978l137.532,0c31.738,0 46.387,-14.852 46.387,-46.794l0,-58.594c0,-31.941 -14.649,-46.59 -46.387,-46.59l-137.532,0c-31.739,0 -46.387,14.649 -46.387,46.59l0,58.594c0,31.942 14.648,46.794 46.387,46.794Zm272.827,138.55l99.079,0c31.738,0 46.388,-14.852 46.388,-46.59l0,-175.782c0,-31.738 -14.65,-46.59 -46.388,-46.59l-99.079,0c-31.738,0 -46.387,14.852 -46.387,46.59l0,175.782c0,31.738 14.649,46.59 46.387,46.59Zm-240.885,18.717l122.883,0c31.739,0 46.388,-14.648 46.388,-46.59l0,-38.656c0,-31.738 -14.649,-46.59 -46.388,-46.59l-122.883,0c-31.739,0 -46.387,14.852 -46.387,46.59l0,38.656c0,31.942 14.648,46.59 46.387,46.59Z" style="fill:#fff;fill-rule:nonzero;"/></g></svg>